<svg xmlns="http://www.w3.org/2000/svg" width="375" height="200"><path d="M275 0h-50c-55.23 0-100 44.77-100 100s44.77 100 100 100h50c55.23 0 100-44.77 100-100S330.23 0 275 0zm22.99 128.99l-19.34 19.34-28.75-28.75-28.65 28.65-19.34-19.34 28.65-28.65-29.26-29.26 19.34-19.34L249.9 80.9l29.35-29.35 19.34 19.34-29.35 29.35 28.75 28.75z"/><path d="M150 0h-50C44.77 0 0 44.77 0 100s44.77 100 100 100h50c55.23 0 100-44.77 100-100S205.23 0 150 0zM58.31 127.35c-15.1 0-27.35-12.24-27.35-27.35S43.2 72.65 58.31 72.65 85.66 84.89 85.66 100s-12.24 27.35-27.35 27.35zm133.38 0c-15.1 0-27.35-12.24-27.35-27.35s12.24-27.35 27.35-27.35 27.35 12.24 27.35 27.35-12.24 27.35-27.35 27.35z" fill="#eae9e4"/></svg>