<?xml version="1.0" encoding="UTF-8"?><svg id="b" xmlns="http://www.w3.org/2000/svg" width="375" height="200" viewBox="0 0 375 200"><g id="c"><path d="m275,0h-50c-55.23,0-100,44.77-100,100h0c0,55.23,44.77,100,100,100h50c55.23,0,100-44.77,100-100h0c0-55.23-44.77-100-100-100Zm22.99,128.99l-19.34,19.34-28.75-28.75-28.65,28.65-19.34-19.34,28.65-28.65-29.26-29.26,19.34-19.34,29.26,29.26,29.35-29.35,19.34,19.34-29.35,29.35,28.75,28.75Z"/><path d="m150,0h-50C44.77,0,0,44.77,0,100h0c0,55.23,44.77,100,100,100h50c55.23,0,100-44.77,100-100h0C250,44.77,205.23,0,150,0ZM58.31,127.35c-15.1,0-27.35-12.24-27.35-27.35s12.24-27.35,27.35-27.35,27.35,12.24,27.35,27.35-12.24,27.35-27.35,27.35Zm133.38,0c-15.1,0-27.35-12.24-27.35-27.35s12.24-27.35,27.35-27.35,27.35,12.24,27.35,27.35-12.24,27.35-27.35,27.35Z" fill="#eae9e4"/></g></svg>